<?xml version="1.0" encoding="UTF-8"?>
<svg width="64" height="64" version="1.1" viewBox="0 0 64 64" xmlns="http://www.w3.org/2000/svg">
 <g stroke-linecap="round" stroke-linejoin="round" stroke-width="2">
  <path d="m32 4a28 28 0 0 0-28 28 28 28 0 0 0 28 28 28 28 0 0 0 28-28 28 28 0 0 0-28-28zm0 2a21 26 0 0 1 21 26 21 26 0 0 1-21 26 21 26 0 0 1-21-26 21 26 0 0 1 21-26z"/>
  <path d="m32.704 45.264c4.5966 3.6972 8.7759 5.5438 11.068 4.1982 2.2175-1.302-0.15525-8.7299-2.0011-14.209-1.795-5.3287-4.7897-10.494-8.7671-15.905-5.1394-6.9925-10.469-12.713-17.747-19.07-0.22374 5.6706 2.0344 18.512 5.1373 26.954 3.5017 9.5269 7.8393 14.436 12.311 18.033z" fill="#000000"/>
  <path d="m20.406 20.087c1.8228 6.8081 4.431 11.846 7.8394 17.137 2.9409 4.3999 7.0123 7.5725 11.787 10.128 0.93674 0.27393 1.6462 1.0786 2.6242 0.26043 0.85115-0.71208-0.6207-5.1421-1.3108-7.6891-1.2608-4.496-2.6647-8.0806-5.4239-12.868-4.872-8.1151-10.787-15.132-17.948-21.457 0.26155 2.5164 0.93257 8.8427 2.4311 14.489z" fill="#999999"/>
  <path d="m49.069 59.97 4.9314 0.030427c-4.6167-3.334-7.0598-6.7154-8.7665-9.4021-5.9357-9.3439-13.54-21.828-22.868-36.114 6.6549 15.171 13.581 25.475 20.858 37.416 1.8071 2.9652 3.4475 5.3529 5.8447 8.0702z" fill="#000000"/>
 </g>
</svg>
