<?xml version="1.0" encoding="UTF-8" standalone="no"?>
<svg
   width="64"
   height="64"
   version="1.1"
   viewBox="0 0 64 64"
   id="svg4"
   sodipodi:docname="quillos.svg"
   inkscape:version="1.4 (e7c3feb1, 2024-10-09)"
   xmlns:inkscape="http://www.inkscape.org/namespaces/inkscape"
   xmlns:sodipodi="http://sodipodi.sourceforge.net/DTD/sodipodi-0.dtd"
   xmlns="http://www.w3.org/2000/svg"
   xmlns:svg="http://www.w3.org/2000/svg">
  <defs
     id="defs4" />
  <sodipodi:namedview
     id="namedview4"
     pagecolor="#ffffff"
     bordercolor="#000000"
     borderopacity="0.25"
     inkscape:showpageshadow="2"
     inkscape:pageopacity="0.0"
     inkscape:pagecheckerboard="0"
     inkscape:deskcolor="#d1d1d1"
     inkscape:zoom="10.87589"
     inkscape:cx="43.076933"
     inkscape:cy="35.537321"
     inkscape:window-width="1800"
     inkscape:window-height="1024"
     inkscape:window-x="0"
     inkscape:window-y="44"
     inkscape:window-maximized="1"
     inkscape:current-layer="svg4" />
  <g
     stroke-linecap="round"
     stroke-linejoin="round"
     stroke-width="2"
     id="g4">
    <path
       d="m32 4a28 28 0 0 0-28 28 28 28 0 0 0 28 28 28 28 0 0 0 28-28 28 28 0 0 0-28-28zm0 2a21 26 0 0 1 21 26 21 26 0 0 1-21 26 21 26 0 0 1-21-26 21 26 0 0 1 21-26z"
       id="path1" />
    <path
       d="m32.704 45.264c4.5966 3.6972 8.7759 5.5438 11.068 4.1982 2.2175-1.302-0.15525-8.7299-2.0011-14.209-1.795-5.3287-4.7897-10.494-8.7671-15.905-5.1394-6.9925-10.469-12.713-17.747-19.07-0.22374 5.6706 2.0344 18.512 5.1373 26.954 3.5017 9.5269 7.8393 14.436 12.311 18.033z"
       fill="#000000"
       id="path2" />
    <path
       d="m20.406 20.087c1.8228 6.8081 4.431 11.846 7.8394 17.137 2.9409 4.3999 7.0123 7.5725 11.787 10.128 0.93674 0.27393 1.6462 1.0786 2.6242 0.26043 0.85115-0.71208-0.6207-5.1421-1.3108-7.6891-1.2608-4.496-2.6647-8.0806-5.4239-12.868-4.872-8.1151-10.787-15.132-17.948-21.457 0.26155 2.5164 0.93257 8.8427 2.4311 14.489z"
       fill="#999999"
       id="path3" />
    <path
       d="m49.069 59.97 4.9314 0.030427c-4.6167-3.334-7.0598-6.7154-8.7665-9.4021-5.9357-9.3439-13.54-21.828-22.868-36.114 6.6549 15.171 13.581 25.475 20.858 37.416 1.8071 2.9652 3.4475 5.3529 5.8447 8.0702z"
       fill="#000000"
       id="path4" />
  </g>
  <rect
     style="fill:#000000;stroke-width:8.83994"
     id="rect9"
     width="64"
     height="64"
     x="0"
     y="-6.8612948e-08" />
  <path
     style="fill:#ffffff;stroke-width:0.0919465"
     d="M 30.279781,59.897596 C 27.790032,59.747725 24.926633,59.157093 22.526892,58.298411 19.944686,57.374439 16.833302,55.629449 14.57352,53.837838 13.333627,52.854821 11.137974,50.658869 10.157525,49.421242 6.8500698,45.246218 4.8356313,40.388033 4.2292488,35.124125 c -0.1792006,-1.55561 -0.1792006,-4.697878 0,-6.253489 0.5075015,-4.405538 1.9767675,-8.474639 4.3868511,-12.149295 1.7601461,-2.683695 4.0544921,-5.141508 6.5515651,-7.0183505 l 0.850628,-0.6393458 -0.0784,-0.4861765 C 15.692691,7.0445051 15.387061,3.7987795 15.339998,2.2067159 l -0.05436,-1.83892992 0.310553,0.28138099 c 0.170804,0.15475954 0.910504,0.82038743 1.643777,1.47917313 0.733273,0.6587856 1.987756,1.8195591 2.78774,2.5794967 l 1.454515,1.3817045 0.810125,-0.3048862 c 4.65444,-1.7516745 10.307627,-2.1863718 15.267408,-1.1739749 4.322663,0.8823477 8.351929,2.7665735 11.861486,5.5468448 1.237627,0.980449 3.433579,3.176102 4.416596,4.415995 1.791611,2.259782 3.536601,5.371166 4.460573,7.953372 2.177002,6.084024 2.177002,12.856953 0,18.940978 -0.917082,2.562949 -2.748866,5.824718 -4.518187,8.045318 -0.825144,1.035602 -3.380393,3.574067 -4.351149,4.322568 -0.42554,0.328113 -0.879662,0.685212 -1.009158,0.793551 l -0.235449,0.196981 1.652786,1.648409 c 1.411877,1.408141 2.263704,2.158803 3.767553,3.320111 l 0.27584,0.21301 -0.919465,-0.05186 c -0.505706,-0.02852 -1.589184,-0.05208 -2.407729,-0.05234 l -1.488264,-4.76e-4 -0.89503,-1.080371 c -0.492266,-0.594204 -1.160076,-1.43392 -1.484022,-1.866036 l -0.588992,-0.785664 -1.671012,0.832664 c -3.501213,1.744652 -6.935165,2.655592 -10.925621,2.89829 -0.826722,0.05028 -1.627259,0.08564 -1.778971,0.07859 -0.151712,-0.0071 -0.800504,-0.04442 -1.44176,-0.08302 z m 3.234717,-1.930857 c 3.550535,-0.325193 6.773098,-1.642115 9.815288,-4.011086 0.417207,-0.324881 0.758559,-0.62981 0.758559,-0.677617 0,-0.04781 -0.456823,-0.828938 -1.01516,-1.735845 l -1.015161,-1.648922 -0.524943,-0.05806 C 38.589772,49.509693 33.80245,46.5553 29.836963,42.617201 26.829441,39.630451 24.669185,36.525429 22.534711,32.121383 20.38209,27.679898 18.700288,22.498587 17.287139,15.954616 c -0.234566,-1.086223 -0.43847,-1.986937 -0.45312,-2.001587 -0.04745,-0.04745 -1.393705,1.930206 -1.882591,2.76553 -1.943464,3.320659 -3.170746,7.01256 -3.749478,11.279149 -0.239986,1.769248 -0.239986,6.230097 0,7.999345 0.199814,1.473093 0.445576,2.756934 0.756845,3.9537 2.981077,11.461641 11.883159,18.901889 21.555703,18.015986 z m 13.817225,-8.122516 c 3.08074,-4.027185 5.072928,-9.365835 5.578988,-14.950528 0.123152,-1.359058 0.123152,-4.433571 0,-5.792629 C 52.032452,19.408925 46.855699,11.131109 39.496368,7.6510444 34.726621,5.3955369 29.263955,5.4084813 24.422529,7.6867636 l -0.954702,0.4492651 0.908729,0.9469547 c 4.161547,4.3365986 9.033824,10.5621886 12.14057,15.5127046 1.654527,2.636446 3.505856,6.234521 4.470747,8.688944 0.556168,1.414739 1.77871,5.097014 2.358628,7.104147 1.250119,4.326737 1.57008,7.068906 0.971899,8.32948 l -0.148767,0.313502 0.662697,1.045246 c 0.364483,0.574884 0.741763,1.158581 0.8384,1.297103 l 0.175704,0.251858 0.464821,-0.527698 c 0.255652,-0.290233 0.714863,-0.854554 1.020468,-1.254047 z m -6.78135,-2.409731 C 40.219687,46.9298 36.519444,40.906886 35.241546,38.79327 31.344721,32.348008 28.107451,26.488358 25.670716,21.469507 24.335655,18.71973 22.926295,15.660585 22.973005,15.613875 c 0.09338,-0.09338 6.449933,9.873093 14.612931,22.911707 2.881094,4.601922 5.253822,8.384371 5.272729,8.405442 0.242243,0.269975 0.03158,-1.43479 -0.378056,-3.059344 C 41.1677,38.664859 39.749557,34.49456 38.161252,31.169862 35.486435,25.570834 30.774529,18.774177 25.571897,13.010429 24.053769,11.328569 20.884319,8.1500083 19.262791,6.6831899 18.121167,5.6504872 18.019172,5.5789438 17.992359,5.7920457 c -0.07005,0.5567338 0.672747,6.0419003 1.232762,9.1032863 1.491209,8.151845 3.837387,14.147774 8.38293,21.423534 2.470264,3.953994 5.63557,7.014142 10.093379,9.758056 0.878426,0.540697 2.838021,1.597336 2.962348,1.597336 0.02403,0 -0.027,-0.107894 -0.113405,-0.239766 z"
     id="path5" />
  <path
     style="fill:#000000;stroke-width:0.0919465"
     d="M 30.30622,57.867165 C 24.319961,57.241423 18.830376,53.473323 15.237539,47.52389 13.209684,44.165933 11.892971,40.335178 11.30712,36.089 c -0.203731,-1.476621 -0.279993,-5.090528 -0.14197,-6.727656 0.451416,-5.354369 2.199577,-10.325448 5.084369,-14.457939 0.502963,-0.7205 0.622663,-0.820608 0.622663,-0.520749 0,0.09731 0.187687,1.017921 0.417083,2.045809 1.510405,6.767901 3.10576,11.591732 5.331462,16.120595 2.103253,4.279704 3.956048,6.90634 7.074003,10.028539 4.054205,4.059722 8.516787,6.88396 11.542859,7.305138 0.379051,0.05276 0.734435,0.146351 0.789742,0.207986 0.05531,0.06164 0.466234,0.712015 0.913172,1.445288 0.446937,0.733273 0.870266,1.423506 0.940731,1.533851 0.121586,0.190396 0.09146,0.22989 -0.590944,0.774587 -3.777024,3.014853 -8.532129,4.488077 -12.98407,4.022716 z"
     id="path6" />
  <path
     style="fill:#000000;stroke-width:0.0919465"
     d="M 29.907356,57.77735 C 26.870663,57.386247 23.590247,55.976657 20.903979,53.908609 19.874185,53.115814 18.071008,51.329634 17.209301,50.24876 14.182871,46.452586 12.179544,41.660043 11.386475,36.318866 11.253479,35.423165 11.22231,34.60119 11.22086,31.951407 c -0.0017,-3.124183 0.0089,-3.328062 0.247161,-4.75625 0.782507,-4.690214 2.434134,-8.881066 4.820221,-12.230865 0.428664,-0.601796 0.58394,-0.703626 0.58394,-0.382948 0,0.225609 0.697677,3.345541 1.159948,5.187153 1.606219,6.398915 3.754527,11.835765 6.447459,16.316965 1.47376,2.452426 2.713777,3.997101 5.211122,6.491437 4.140759,4.135769 8.019608,6.647765 11.271707,7.29971 0.528126,0.105874 0.989076,0.222575 1.024332,0.259337 0.08037,0.08381 1.917702,3.058884 1.917702,3.105222 0,0.07905 -1.321816,1.079414 -2.122022,1.605979 -2.300875,1.514057 -4.943546,2.517321 -7.610685,2.889323 -1.10417,0.154005 -3.227957,0.174364 -4.264389,0.04088 z"
     id="path7" />
  <path
     style="fill:#000000;stroke-width:0.0919465"
     d="m 30.204424,57.817003 c -2.376204,-0.250209 -5.292171,-1.295947 -7.599435,-2.725346 -3.150017,-1.951501 -6.02165,-5.119483 -8.057063,-8.888543 -1.697145,-3.142674 -2.984432,-7.501575 -3.285633,-11.125526 -0.135831,-1.634273 -0.111068,-5.30008 0.04472,-6.620711 0.4683,-3.969744 1.578123,-7.564366 3.343949,-10.830761 0.642666,-1.188794 1.925255,-3.163402 2.085195,-3.21026 0.05161,-0.01512 0.146061,0.252078 0.20988,0.593777 0.224775,1.203476 1.056525,4.687818 1.551399,6.499075 2.059998,7.539664 4.966878,13.767269 8.454569,18.112789 0.954795,1.189637 3.271283,3.588318 4.542921,4.704112 3.654213,3.206377 6.869806,5.064022 9.691377,5.598699 0.401415,0.07607 0.760699,0.169843 0.798407,0.208392 0.08338,0.08524 1.919739,3.0575 1.919739,3.107218 0,0.08011 -1.315832,1.076727 -2.122022,1.607229 -3.043975,2.003042 -6.518188,3.057082 -9.949117,3.018457 -0.718892,-0.0081 -1.451892,-0.02996 -1.628889,-0.0486 z"
     id="path8" />
  <path
     style="fill:#000000;stroke-width:0.0919465"
     d="m 45.312387,50.603354 c -1.096835,-1.701606 -1.035555,-1.572678 -0.884525,-1.860929 0.0739,-0.141036 0.179613,-0.614969 0.234926,-1.053184 C 44.885245,45.926829 44.249951,42.814561 42.613947,37.65209 41.148563,33.028022 39.812185,29.95785 37.655229,26.260027 34.679782,21.159006 29.850381,14.791194 24.982299,9.5501237 l -1.292481,-1.3915094 0.90017,-0.4234145 c 4.107039,-1.9318367 8.562971,-2.1994644 12.867902,-0.772859 7.210836,2.3895886 12.913557,9.5223572 14.808561,18.5220422 0.500162,2.375355 0.602784,3.484175 0.602784,6.512998 0,3.028822 -0.102622,4.137642 -0.602784,6.512997 -0.562804,2.672846 -1.296438,4.767191 -2.517564,7.187031 -1.061709,2.10393 -1.982944,3.49711 -3.55296,5.373122 l -0.329001,0.393123 z"
     id="path9" />
</svg>
